<svg width="20" height="14" viewBox="0 0 20 14" fill="none" xmlns="http://www.w3.org/2000/svg">
<path d="M19.7461 2.61487C19.6416 2.48825 19.51 2.38626 19.3608 2.31632C19.2115 2.24639 19.0485 2.21024 18.8834 2.21053H4.73618L4.45124 0.608816C4.42086 0.438204 4.33077 0.283654 4.19679 0.172314C4.06282 0.0609738 3.89353 -3.64007e-05 3.71866 1.62935e-08H0.743733C0.546483 1.62935e-08 0.357311 0.0776315 0.217834 0.215816C0.0783573 0.354001 0 0.541419 0 0.736842C0 0.932265 0.0783573 1.11968 0.217834 1.25787C0.357311 1.39605 0.546483 1.47368 0.743733 1.47368H3.09486L5.21729 13.3912C5.24767 13.5618 5.33776 13.7163 5.47173 13.8277C5.60571 13.939 5.77499 14 5.94986 14H17.8496C18.0468 14 18.236 13.9224 18.3755 13.7842C18.515 13.646 18.5933 13.4586 18.5933 13.2632C18.5933 13.0677 18.515 12.8803 18.3755 12.7421C18.236 12.6039 18.0468 12.5263 17.8496 12.5263H6.57367L6.3115 11.0526H17.5447C17.8026 11.0523 18.0525 10.9637 18.252 10.8018C18.4516 10.6399 18.5886 10.4147 18.6398 10.1643L19.9785 3.5327C20.0108 3.37221 20.0067 3.20662 19.9665 3.04789C19.9263 2.88917 19.851 2.74127 19.7461 2.61487Z" fill="#C3B97F"/>
</svg>
